{
  "asset": {
    "generator": "Khronos glTF Blender I/O v1.5.17",
    "version": "2.0"
  },
  "scene": 0,
  "scenes": [
    {
      "name": "Scene",
      "nodes": [
        0
      ]
    }
  ],
  "nodes": [
    {
      "mesh": 0,
      "name": "sphere_gltf"
    }
  ],
  "materials": [
    {
      "doubleSided": true,
      "name": "ceramic_roof_01",
      "normalTexture": {
        "index": 0
      },
      "pbrMetallicRoughness": {
        "baseColorTexture": {
          "index": 1
        },
        "metallicFactor": 0,
        "metallicRoughnessTexture": {
          "index": 2
        }
      }
    }
  ],
  "meshes": [
    {
      "name": "Sphere.001",
      "primitives": [
        {
          "attributes": {
            "POSITION": 0,
            "NORMAL": 1,
            "TEXCOORD_0": 2
          },
          "indices": 3,
          "material": 0
        }
      ]
    }
  ],
  "textures": [
    {
      "sampler": 0,
      "source": 0
    },
    {
      "sampler": 0,
      "source": 1
    },
    {
      "sampler": 0,
      "source": 2
    }
  ],
  "images": [
    {
      "mimeType": "image/jpeg",
      "name": "ceramic_roof_01_nor_gl_4k",
      "uri": "textures/ceramic_roof_01_nor_gl_2k.jpg"
    },
    {
      "mimeType": "image/jpeg",
      "name": "ceramic_roof_01_diff_4k",
      "uri": "textures/ceramic_roof_01_diff_2k.jpg"
    },
    {
      "mimeType": "image/jpeg",
      "name": "ceramic_roof_01_rough_4k",
      "uri": "textures/ceramic_roof_01_rough_2k.jpg"
    }
  ],
  "accessors": [
    {
      "bufferView": 0,
      "componentType": 5126,
      "count": 53816,
      "max": [
        1.7786288261413574,
        1.7974284887313843,
        1.7735581398010254
      ],
      "min": [
        -1.7786279916763306,
        -1.8088665008544922,
        -1.7735459804534912
      ],
      "type": "VEC3"
    },
    {
      "bufferView": 1,
      "componentType": 5126,
      "count": 53816,
      "type": "VEC3"
    },
    {
      "bufferView": 2,
      "componentType": 5126,
      "count": 53816,
      "type": "VEC2"
    },
    {
      "bufferView": 3,
      "componentType": 5123,
      "count": 322170,
      "type": "SCALAR"
    }
  ],
  "bufferViews": [
    {
      "buffer": 0,
      "byteLength": 645792,
      "byteOffset": 0
    },
    {
      "buffer": 0,
      "byteLength": 645792,
      "byteOffset": 645792
    },
    {
      "buffer": 0,
      "byteLength": 430528,
      "byteOffset": 1291584
    },
    {
      "buffer": 0,
      "byteLength": 644340,
      "byteOffset": 1722112
    }
  ],
  "samplers": [
    {
      "magFilter": 9729,
      "minFilter": 9987
    }
  ],
  "buffers": [
    {
      "byteLength": 2366452,
      "uri": "ceramic_roof_01.bin"
    }
  ]
}